<?xml version="1.0" encoding="UTF-8" standalone="no"?>
<svg
   xmlns:dc="http://purl.org/dc/elements/1.1/"
   xmlns:cc="http://creativecommons.org/ns#"
   xmlns:rdf="http://www.w3.org/1999/02/22-rdf-syntax-ns#"
   xmlns:svg="http://www.w3.org/2000/svg"
   xmlns="http://www.w3.org/2000/svg"
   id="svg4591"
   version="1.1"
   viewBox="0 0 69.849998 69.850002"
   height="264"
   width="264">
  <defs
     id="defs4585" />
  <metadata
     id="metadata4588">
    <rdf:RDF>
      <cc:Work
         rdf:about="">
        <dc:format>image/svg+xml</dc:format>
        <dc:type
           rdf:resource="http://purl.org/dc/dcmitype/StillImage" />
        <dc:title></dc:title>
      </cc:Work>
    </rdf:RDF>
  </metadata>
  <g
     transform="translate(0,-227.14999)"
     id="layer1">
    <path
       id="path21"
       d="m 0,227.15 v 69.84999 h 2.38125 4.252453 28.291296 32.543753 2.38125 V 227.15 H 67.468752 34.924999 6.633703 2.38125 Z m 8.20105,6.08541 4.564062,0.0202 4.564062,0.0202 2.248959,2.54093 c 1.23693,1.39759 3.738614,4.15669 5.558833,6.13141 1.82022,1.97472 4.921251,5.37642 6.891568,7.55923 11.853871,13.13226 15.52707,17.21294 16.049151,17.82939 l 0.58601,0.69143 0.0098,-11.04634 0.01033,-11.04636 -5.622395,-0.0145 -5.622396,-0.0139 -5.55625,-6.1159 c -3.05594,-3.36375 -5.595599,-6.21521 -5.644099,-6.33605 -0.0485,-0.12083 7.899312,-0.21963 17.661971,-0.21963 h 17.750336 l -0.0672,28.90573 -0.0677,28.90572 -4.38061,0.0724 -4.38113,0.0723 -5.951061,-6.55462 c -3.273129,-3.60503 -9.568249,-10.54325 -13.989328,-15.4182 -4.421068,-4.87493 -8.850023,-9.74906 -9.842292,-10.83137 l -1.804541,-1.96784 v 10.89752 10.89752 h 5.524727 5.524211 l 1.156518,1.279 c 0.63601,0.70326 3.180069,3.513 5.653918,6.24406 2.473851,2.73105 4.537784,5.07235 4.586285,5.2033 l -10e-4,5.2e-4 c 0.101571,0.27419 -34.959607,0.33539 -35.233507,0.0615 -0.097,-0.097 -0.176734,-13.13434 -0.176734,-28.97187 z"
       style="fill:#333333;fill-opacity:1;stroke-width:0.26458335" />
  </g>
</svg>